<svg xmlns="http://www.w3.org/2000/svg" viewBox="0 0 500 101" fill="#f6f4ea" fill-rule="evenodd"><path d="M134.0 -0.5L133.0 0.5L120.0 1.5L108.0 6.5L96.5 17.0L90.0 28.5L89.0 2.5L60.0 2.5L59.5 65.0L57.5 71.0L54.0 74.5L48.0 76.5L37.0 75.5L32.5 72.0L30.5 68.0L30.5 3.0L0.0 2.5L-0.5 70.0L0.5 71.0L0.5 75.0L4.5 84.0L13.0 92.5L20.0 96.5L30.0 99.5L53.0 100.5L54.0 99.5L60.0 99.5L67.0 97.5L78.0 91.5L83.5 86.0L87.5 79.0L88.5 73.0L90.0 70.5L95.5 82.0L105.0 91.5L116.0 97.5L123.0 99.5L128.0 99.5L129.0 100.5L143.0 100.5L144.0 99.5L149.0 99.5L159.0 96.5L166.0 92.5L174.5 84.0L178.0 78.5L178.0 97.5L274.0 97.5L278.0 85.5L308.0 85.5L312.0 97.5L364.0 97.5L365.0 64.5L380.0 64.5L386.0 66.5L389.5 70.0L390.5 73.0L391.0 97.5L419.0 97.5L420.0 85.5L427.0 92.5L439.0 98.5L449.0 99.5L450.0 100.5L465.0 100.5L466.0 99.5L471.0 99.5L472.0 98.5L479.0 97.5L488.0 92.5L494.5 86.0L498.5 78.0L499.5 62.0L496.5 54.0L492.0 48.5L480.0 41.5L453.0 34.5L449.0 32.5L445.5 29.0L446.5 25.0L451.0 21.5L460.0 21.5L463.0 22.5L467.5 27.0L468.0 29.5L496.5 29.0L496.5 25.0L491.5 14.0L482.0 5.5L476.0 2.5L473.0 2.5L468.0 0.5L455.0 -0.5L454.0 0.5L444.0 0.5L434.0 3.5L427.0 7.5L420.5 14.0L418.0 18.5L412.0 9.5L405.0 5.5L398.0 3.5L392.0 3.5L391.0 2.5L335.0 2.5L334.0 73.5L329.5 60.0L327.5 57.0L322.5 40.0L320.5 37.0L316.5 23.0L314.5 20.0L309.5 3.0L278.0 2.5L252.5 74.0L209.0 74.5L209.0 59.5L247.0 59.5L247.5 39.0L246.0 37.5L209.0 37.5L208.5 26.0L253.0 25.5L254.5 24.0L254.5 3.0L179.0 2.5L178.0 22.5L172.5 14.0L162.0 5.5L152.0 1.5ZM133.0 23.5L127.0 25.5L121.5 31.0L119.5 35.0L118.5 44.0L117.5 45.0L118.5 61.0L120.5 67.0L127.0 74.5L132.0 76.5L141.0 76.5L146.0 74.5L151.5 68.0L151.5 66.0L139.5 65.0L140.0 45.5L177.0 45.5L178.5 44.0L178.5 40.0L177.0 38.5L153.0 38.5L151.5 37.0L150.5 31.0L145.0 25.5L139.0 23.5ZM365.0 25.5L365.0 43.5L383.0 43.5L389.5 41.0L391.5 37.0L391.5 32.0L389.0 27.5L384.0 25.5ZM293.0 33.5L286.5 54.0L286.5 57.0L283.5 64.0L285.0 65.5L302.0 65.5L301.5 59.0L299.5 55.0L295.5 38.0ZM418.0 41.5L409.0 51.5L405.5 53.0L415.5 59.0L418.5 64.0L418.5 67.0L420.0 68.5L422.0 67.5L423.0 68.5L444.0 68.5L446.5 74.0L452.0 77.5L464.0 77.5L469.5 73.0L469.5 69.0L466.0 65.5L462.0 63.5L441.0 58.5L427.0 52.5L419.5 45.0Z"></path></svg>